{
 "accessors": [
  {
   "componentType": 5126,
   "type": "VEC3",
   "count": 625,
   "max": [
    1.0499999523162842,
    0.05000000074505806,
    1.0499999523162842
   ],
   "min": [
    -1.0499999523162842,
    -0.05000000074505806,
    -1.0499999523162842
   ],
   "bufferView": 0
  },
  {
   "componentType": 5126,
   "type": "VEC3",
   "count": 625,
   "bufferView": 1
  },
  {
   "componentType": 5126,
   "type": "VEC2",
   "count": 625,
   "bufferView": 2
  },
  {
   "componentType": 5123,
   "type": "SCALAR",
   "count": 3456,
   "bufferView": 3
  },
  {
   "componentType": 5126,
   "type": "VEC3",
   "count": 625,
   "max": [
    0.949999988079071,
    0.05000000074505806,
    0.949999988079071
   ],
   "min": [
    -0.949999988079071,
    -0.05000000074505806,
    -0.949999988079071
   ],
   "bufferView": 4
  },
  {
   "componentType": 5126,
   "type": "VEC3",
   "count": 625,
   "bufferView": 5
  },
  {
   "componentType": 5126,
   "type": "VEC2",
   "count": 625,
   "bufferView": 6
  },
  {
   "componentType": 5123,
   "type": "SCALAR",
   "count": 3456,
   "bufferView": 7
  },
  {
   "componentType": 5126,
   "type": "VEC3",
   "count": 625,
   "max": [
    0.8500000238418579,
    0.05000000074505806,
    0.8500000238418579
   ],
   "min": [
    -0.8500000238418579,
    -0.05000000074505806,
    -0.8500000238418579
   ],
   "bufferView": 8
  },
  {
   "componentType": 5126,
   "type": "VEC3",
   "count": 625,
   "bufferView": 9
  },
  {
   "componentType": 5126,
   "type": "VEC2",
   "count": 625,
   "bufferView": 10
  },
  {
   "componentType": 5123,
   "type": "SCALAR",
   "count": 3456,
   "bufferView": 11
  },
  {
   "componentType": 5126,
   "type": "VEC3",
   "count": 625,
   "max": [
    0.75,
    0.05000000074505806,
    0.75
   ],
   "min": [
    -0.75,
    -0.05000000074505806,
    -0.75
   ],
   "bufferView": 12
  },
  {
   "componentType": 5126,
   "type": "VEC3",
   "count": 625,
   "bufferView": 13
  },
  {
   "componentType": 5126,
   "type": "VEC2",
   "count": 625,
   "bufferView": 14
  },
  {
   "componentType": 5123,
   "type": "SCALAR",
   "count": 3456,
   "bufferView": 15
  },
  {
   "componentType": 5126,
   "type": "VEC3",
   "count": 625,
   "max": [
    0.6499999761581421,
    0.05000000074505806,
    0.6499999761581421
   ],
   "min": [
    -0.6499999761581421,
    -0.05000000074505806,
    -0.6499999761581421
   ],
   "bufferView": 16
  },
  {
   "componentType": 5126,
   "type": "VEC3",
   "count": 625,
   "bufferView": 17
  },
  {
   "componentType": 5126,
   "type": "VEC2",
   "count": 625,
   "bufferView": 18
  },
  {
   "componentType": 5123,
   "type": "SCALAR",
   "count": 3456,
   "bufferView": 19
  },
  {
   "componentType": 5126,
   "type": "VEC3",
   "count": 625,
   "max": [
    0.550000011920929,
    0.05000000074505806,
    0.550000011920929
   ],
   "min": [
    -0.550000011920929,
    -0.05000000074505806,
    -0.550000011920929
   ],
   "bufferView": 20
  },
  {
   "componentType": 5126,
   "type": "VEC3",
   "count": 625,
   "bufferView": 21
  },
  {
   "componentType": 5126,
   "type": "VEC2",
   "count": 625,
   "bufferView": 22
  },
  {
   "componentType": 5123,
   "type": "SCALAR",
   "count": 3456,
   "bufferView": 23
  },
  {
   "componentType": 5126,
   "type": "VEC3",
   "count": 625,
   "max": [
    0.44999998807907104,
    0.05000000074505806,
    0.44999998807907104
   ],
   "min": [
    -0.44999998807907104,
    -0.05000000074505806,
    -0.44999998807907104
   ],
   "bufferView": 24
  },
  {
   "componentType": 5126,
   "type": "VEC3",
   "count": 625,
   "bufferView": 25
  },
  {
   "componentType": 5126,
   "type": "VEC2",
   "count": 625,
   "bufferView": 26
  },
  {
   "componentType": 5123,
   "type": "SCALAR",
   "count": 3456,
   "bufferView": 27
  },
  {
   "componentType": 5126,
   "type": "VEC3",
   "count": 625,
   "max": [
    0.3499999940395355,
    0.05000000074505806,
    0.3499999940395355
   ],
   "min": [
    -0.3499999940395355,
    -0.05000000074505806,
    -0.3499999940395355
   ],
   "bufferView": 28
  },
  {
   "componentType": 5126,
   "type": "VEC3",
   "count": 625,
   "bufferView": 29
  },
  {
   "componentType": 5126,
   "type": "VEC2",
   "count": 625,
   "bufferView": 30
  },
  {
   "componentType": 5123,
   "type": "SCALAR",
   "count": 3456,
   "bufferView": 31
  },
  {
   "componentType": 5126,
   "type": "VEC3",
   "count": 625,
   "max": [
    0.25,
    0.05000000074505806,
    0.25
   ],
   "min": [
    -0.25,
    -0.05000000074505806,
    -0.25
   ],
   "bufferView": 32
  },
  {
   "componentType": 5126,
   "type": "VEC3",
   "count": 625,
   "bufferView": 33
  },
  {
   "componentType": 5126,
   "type": "VEC2",
   "count": 625,
   "bufferView": 34
  },
  {
   "componentType": 5123,
   "type": "SCALAR",
   "count": 3456,
   "bufferView": 35
  },
  {
   "componentType": 5126,
   "type": "VEC3",
   "count": 625,
   "max": [
    0.15000000596046448,
    0.05000000074505806,
    0.15000000596046448
   ],
   "min": [
    -0.15000000596046448,
    -0.05000000074505806,
    -0.15000000596046448
   ],
   "bufferView": 36
  },
  {
   "componentType": 5126,
   "type": "VEC3",
   "count": 625,
   "bufferView": 37
  },
  {
   "componentType": 5126,
   "type": "VEC2",
   "count": 625,
   "bufferView": 38
  },
  {
   "componentType": 5123,
   "type": "SCALAR",
   "count": 3456,
   "bufferView": 39
  },
  {
   "componentType": 5126,
   "type": "VEC3",
   "count": 625,
   "max": [
    0.05999999865889549,
    0.05000000074505806,
    0.05999999865889549
   ],
   "min": [
    -0.05999999865889549,
    -0.05000000074505806,
    -0.05999999865889549
   ],
   "bufferView": 40
  },
  {
   "componentType": 5126,
   "type": "VEC3",
   "count": 625,
   "bufferView": 41
  },
  {
   "componentType": 5126,
   "type": "VEC2",
   "count": 625,
   "bufferView": 42
  },
  {
   "componentType": 5123,
   "type": "SCALAR",
   "count": 3312,
   "bufferView": 43
  },
  {
   "componentType": 5126,
   "type": "VEC3",
   "count": 131,
   "max": [
    0.07500000298023224,
    2.3499999046325684,
    0.10000000149011612
   ],
   "min": [
    -0.07500000298023224,
    -2.3499999046325684,
    -0.07500000298023224
   ],
   "bufferView": 44
  },
  {
   "componentType": 5126,
   "type": "VEC3",
   "count": 131,
   "bufferView": 45
  },
  {
   "componentType": 5126,
   "type": "VEC2",
   "count": 131,
   "bufferView": 46
  },
  {
   "componentType": 5121,
   "type": "SCALAR",
   "count": 528,
   "bufferView": 47
  }
 ],
 "asset": {
  "version": "2.0",
  "generator": "clara.io"
 },
 "bufferViews": [
  {
   "buffer": 0,
   "byteOffset": 0,
   "byteLength": 7500,
   "target": 34962,
   "byteStride": 12
  },
  {
   "buffer": 0,
   "byteOffset": 7500,
   "byteLength": 7500,
   "target": 34962,
   "byteStride": 12
  },
  {
   "buffer": 0,
   "byteOffset": 15000,
   "byteLength": 5000,
   "target": 34962,
   "byteStride": 8
  },
  {
   "buffer": 0,
   "byteOffset": 20000,
   "byteLength": 6912,
   "target": 34963
  },
  {
   "buffer": 0,
   "byteOffset": 26912,
   "byteLength": 7500,
   "target": 34962,
   "byteStride": 12
  },
  {
   "buffer": 0,
   "byteOffset": 34412,
   "byteLength": 7500,
   "target": 34962,
   "byteStride": 12
  },
  {
   "buffer": 0,
   "byteOffset": 41912,
   "byteLength": 5000,
   "target": 34962,
   "byteStride": 8
  },
  {
   "buffer": 0,
   "byteOffset": 46912,
   "byteLength": 6912,
   "target": 34963
  },
  {
   "buffer": 0,
   "byteOffset": 53824,
   "byteLength": 7500,
   "target": 34962,
   "byteStride": 12
  },
  {
   "buffer": 0,
   "byteOffset": 61324,
   "byteLength": 7500,
   "target": 34962,
   "byteStride": 12
  },
  {
   "buffer": 0,
   "byteOffset": 68824,
   "byteLength": 5000,
   "target": 34962,
   "byteStride": 8
  },
  {
   "buffer": 0,
   "byteOffset": 73824,
   "byteLength": 6912,
   "target": 34963
  },
  {
   "buffer": 0,
   "byteOffset": 80736,
   "byteLength": 7500,
   "target": 34962,
   "byteStride": 12
  },
  {
   "buffer": 0,
   "byteOffset": 88236,
   "byteLength": 7500,
   "target": 34962,
   "byteStride": 12
  },
  {
   "buffer": 0,
   "byteOffset": 95736,
   "byteLength": 5000,
   "target": 34962,
   "byteStride": 8
  },
  {
   "buffer": 0,
   "byteOffset": 100736,
   "byteLength": 6912,
   "target": 34963
  },
  {
   "buffer": 0,
   "byteOffset": 107648,
   "byteLength": 7500,
   "target": 34962,
   "byteStride": 12
  },
  {
   "buffer": 0,
   "byteOffset": 115148,
   "byteLength": 7500,
   "target": 34962,
   "byteStride": 12
  },
  {
   "buffer": 0,
   "byteOffset": 122648,
   "byteLength": 5000,
   "target": 34962,
   "byteStride": 8
  },
  {
   "buffer": 0,
   "byteOffset": 127648,
   "byteLength": 6912,
   "target": 34963
  },
  {
   "buffer": 0,
   "byteOffset": 134560,
   "byteLength": 7500,
   "target": 34962,
   "byteStride": 12
  },
  {
   "buffer": 0,
   "byteOffset": 142060,
   "byteLength": 7500,
   "target": 34962,
   "byteStride": 12
  },
  {
   "buffer": 0,
   "byteOffset": 149560,
   "byteLength": 5000,
   "target": 34962,
   "byteStride": 8
  },
  {
   "buffer": 0,
   "byteOffset": 154560,
   "byteLength": 6912,
   "target": 34963
  },
  {
   "buffer": 0,
   "byteOffset": 161472,
   "byteLength": 7500,
   "target": 34962,
   "byteStride": 12
  },
  {
   "buffer": 0,
   "byteOffset": 168972,
   "byteLength": 7500,
   "target": 34962,
   "byteStride": 12
  },
  {
   "buffer": 0,
   "byteOffset": 176472,
   "byteLength": 5000,
   "target": 34962,
   "byteStride": 8
  },
  {
   "buffer": 0,
   "byteOffset": 181472,
   "byteLength": 6912,
   "target": 34963
  },
  {
   "buffer": 0,
   "byteOffset": 188384,
   "byteLength": 7500,
   "target": 34962,
   "byteStride": 12
  },
  {
   "buffer": 0,
   "byteOffset": 195884,
   "byteLength": 7500,
   "target": 34962,
   "byteStride": 12
  },
  {
   "buffer": 0,
   "byteOffset": 203384,
   "byteLength": 5000,
   "target": 34962,
   "byteStride": 8
  },
  {
   "buffer": 0,
   "byteOffset": 208384,
   "byteLength": 6912,
   "target": 34963
  },
  {
   "buffer": 0,
   "byteOffset": 215296,
   "byteLength": 7500,
   "target": 34962,
   "byteStride": 12
  },
  {
   "buffer": 0,
   "byteOffset": 222796,
   "byteLength": 7500,
   "target": 34962,
   "byteStride": 12
  },
  {
   "buffer": 0,
   "byteOffset": 230296,
   "byteLength": 5000,
   "target": 34962,
   "byteStride": 8
  },
  {
   "buffer": 0,
   "byteOffset": 235296,
   "byteLength": 6912,
   "target": 34963
  },
  {
   "buffer": 0,
   "byteOffset": 242208,
   "byteLength": 7500,
   "target": 34962,
   "byteStride": 12
  },
  {
   "buffer": 0,
   "byteOffset": 249708,
   "byteLength": 7500,
   "target": 34962,
   "byteStride": 12
  },
  {
   "buffer": 0,
   "byteOffset": 257208,
   "byteLength": 5000,
   "target": 34962,
   "byteStride": 8
  },
  {
   "buffer": 0,
   "byteOffset": 262208,
   "byteLength": 6912,
   "target": 34963
  },
  {
   "buffer": 0,
   "byteOffset": 269120,
   "byteLength": 7500,
   "target": 34962,
   "byteStride": 12
  },
  {
   "buffer": 0,
   "byteOffset": 276620,
   "byteLength": 7500,
   "target": 34962,
   "byteStride": 12
  },
  {
   "buffer": 0,
   "byteOffset": 284120,
   "byteLength": 5000,
   "target": 34962,
   "byteStride": 8
  },
  {
   "buffer": 0,
   "byteOffset": 289120,
   "byteLength": 6624,
   "target": 34963
  },
  {
   "buffer": 0,
   "byteOffset": 295744,
   "byteLength": 1572,
   "target": 34962,
   "byteStride": 12
  },
  {
   "buffer": 0,
   "byteOffset": 297316,
   "byteLength": 1572,
   "target": 34962,
   "byteStride": 12
  },
  {
   "buffer": 0,
   "byteOffset": 298888,
   "byteLength": 1048,
   "target": 34962,
   "byteStride": 8
  },
  {
   "buffer": 0,
   "byteOffset": 299936,
   "byteLength": 528,
   "target": 34963
  }
 ],
 "buffers": [
  {
   "byteLength": 300464,
   "uri": "data:application/octet-stream;base64,"
  }
 ],
 "materials": [
  {
   "name": "Default-Torus",
   "pbrMetallicRoughness": {
    "baseColorFactor": [
     0,
     0,
     0,
     1
    ]
   }
  },
  {
   "name": "Default-Torus1",
   "pbrMetallicRoughness": {
    "baseColorFactor": [
     0.06666666666666667,
     0,
     0.0784313725490196,
     1
    ]
   }
  },
  {
   "name": "Default-Torus2",
   "pbrMetallicRoughness": {
    "baseColorFactor": [
     0.11764705882352941,
     0,
     0.11764705882352941,
     1
    ]
   }
  },
  {
   "name": "Default-Torus3",
   "pbrMetallicRoughness": {
    "baseColorFactor": [
     0.13725490196078433,
     0,
     0.14901960784313725,
     1
    ]
   }
  },
  {
   "name": "Default-Torus4",
   "pbrMetallicRoughness": {
    "baseColorFactor": [
     0.1568627450980392,
     0,
     0.17647058823529413,
     1
    ]
   }
  },
  {
   "name": "Default-Torus5",
   "pbrMetallicRoughness": {
    "baseColorFactor": [
     0.18823529411764706,
     0,
     0.20784313725490197,
     1
    ]
   }
  },
  {
   "name": "Default-Torus6",
   "pbrMetallicRoughness": {
    "baseColorFactor": [
     0.23137254901960785,
     0,
     0.26666666666666666,
     1
    ]
   }
  },
  {
   "name": "Default-Torus7",
   "pbrMetallicRoughness": {
    "baseColorFactor": [
     0.27058823529411763,
     0,
     0.30980392156862746,
     1
    ]
   }
  },
  {
   "name": "Default-Torus8",
   "pbrMetallicRoughness": {
    "baseColorFactor": [
     0.34901960784313724,
     0,
     0.40784313725490196,
     1
    ]
   }
  },
  {
   "name": "Default-Torus9",
   "pbrMetallicRoughness": {
    "baseColorFactor": [
     0.47058823529411764,
     0,
     0.5490196078431373,
     1
    ]
   }
  },
  {
   "name": "Default-Torus10",
   "pbrMetallicRoughness": {
    "baseColorFactor": [
     0.6392156862745098,
     0,
     0.7372549019607844,
     1
    ]
   }
  },
  {
   "name": "Default-Capsule"
  }
 ],
 "meshes": [
  {
   "primitives": [
    {
     "indices": 3,
     "material": 0,
     "mode": 4,
     "attributes": {
      "POSITION": 0,
      "NORMAL": 1,
      "TEXCOORD_0": 2
     }
    }
   ]
  },
  {
   "primitives": [
    {
     "indices": 7,
     "material": 1,
     "mode": 4,
     "attributes": {
      "POSITION": 4,
      "NORMAL": 5,
      "TEXCOORD_0": 6
     }
    }
   ]
  },
  {
   "primitives": [
    {
     "indices": 11,
     "material": 2,
     "mode": 4,
     "attributes": {
      "POSITION": 8,
      "NORMAL": 9,
      "TEXCOORD_0": 10
     }
    }
   ]
  },
  {
   "primitives": [
    {
     "indices": 15,
     "material": 3,
     "mode": 4,
     "attributes": {
      "POSITION": 12,
      "NORMAL": 13,
      "TEXCOORD_0": 14
     }
    }
   ]
  },
  {
   "primitives": [
    {
     "indices": 19,
     "material": 4,
     "mode": 4,
     "attributes": {
      "POSITION": 16,
      "NORMAL": 17,
      "TEXCOORD_0": 18
     }
    }
   ]
  },
  {
   "primitives": [
    {
     "indices": 23,
     "material": 5,
     "mode": 4,
     "attributes": {
      "POSITION": 20,
      "NORMAL": 21,
      "TEXCOORD_0": 22
     }
    }
   ]
  },
  {
   "primitives": [
    {
     "indices": 27,
     "material": 6,
     "mode": 4,
     "attributes": {
      "POSITION": 24,
      "NORMAL": 25,
      "TEXCOORD_0": 26
     }
    }
   ]
  },
  {
   "primitives": [
    {
     "indices": 31,
     "material": 7,
     "mode": 4,
     "attributes": {
      "POSITION": 28,
      "NORMAL": 29,
      "TEXCOORD_0": 30
     }
    }
   ]
  },
  {
   "primitives": [
    {
     "indices": 35,
     "material": 8,
     "mode": 4,
     "attributes": {
      "POSITION": 32,
      "NORMAL": 33,
      "TEXCOORD_0": 34
     }
    }
   ]
  },
  {
   "primitives": [
    {
     "indices": 39,
     "material": 9,
     "mode": 4,
     "attributes": {
      "POSITION": 36,
      "NORMAL": 37,
      "TEXCOORD_0": 38
     }
    }
   ]
  },
  {
   "primitives": [
    {
     "indices": 43,
     "material": 10,
     "mode": 4,
     "attributes": {
      "POSITION": 40,
      "NORMAL": 41,
      "TEXCOORD_0": 42
     }
    }
   ]
  },
  {
   "primitives": [
    {
     "indices": 47,
     "material": 11,
     "mode": 4,
     "attributes": {
      "POSITION": 44,
      "NORMAL": 45,
      "TEXCOORD_0": 46
     }
    }
   ]
  }
 ],
 "nodes": [
  {
   "name": "Torus",
   "rotation": [
    0,
    0,
    0.3987490667059685,
    0.9170600776606574
   ],
   "scale": [
    1.690000055357685,
    1.00000000712806,
    1
   ],
   "mesh": 0
  },
  {
   "name": "Torus1",
   "rotation": [
    0,
    0,
    0.3987490667059685,
    0.9170600776606574
   ],
   "scale": [
    1.7000000071701329,
    1.00000000712806,
    1
   ],
   "mesh": 1
  },
  {
   "name": "Torus2",
   "rotation": [
    0,
    0,
    0.3987490504571299,
    0.9170600776606574
   ],
   "scale": [
    1.7300000310921728,
    1.00000000712806,
    1
   ],
   "mesh": 2
  },
  {
   "name": "Torus3",
   "rotation": [
    0,
    0,
    0.3987490504571299,
    0.9170600776606574
   ],
   "scale": [
    1.7300000310921728,
    1.00000000712806,
    1
   ],
   "mesh": 3
  },
  {
   "name": "Torus4",
   "rotation": [
    0,
    0,
    0.3987490504571299,
    0.9170600776606574
   ],
   "scale": [
    1.7300000310921728,
    1.00000000712806,
    1
   ],
   "mesh": 4
  },
  {
   "name": "Torus5",
   "rotation": [
    0,
    0,
    0.3987490504571299,
    0.9170600776606574
   ],
   "scale": [
    1.7300000310921728,
    1.00000000712806,
    1
   ],
   "mesh": 5
  },
  {
   "name": "Torus6",
   "rotation": [
    0,
    0,
    0.3987490667059685,
    0.9170600776606574
   ],
   "scale": [
    1.7700000127102706,
    1.00000000712806,
    1
   ],
   "mesh": 6
  },
  {
   "name": "Torus7",
   "rotation": [
    0,
    0,
    0.3987490667059685,
    0.9170600776606574
   ],
   "scale": [
    1.7799999645227182,
    1.00000000712806,
    1
   ],
   "mesh": 7
  },
  {
   "name": "Torus8",
   "rotation": [
    0,
    0,
    0.3987490667059685,
    0.9170600776606574
   ],
   "scale": [
    1.7799999645227182,
    1.00000000712806,
    1
   ],
   "mesh": 8
  },
  {
   "name": "Torus9",
   "rotation": [
    0,
    0,
    0.3987490667059685,
    0.9170600776606574
   ],
   "scale": [
    1.8099999071442157,
    1.00000000712806,
    1
   ],
   "mesh": 9
  },
  {
   "name": "Torus10",
   "rotation": [
    0,
    0,
    0.3987490667059685,
    0.9170600776606574
   ],
   "scale": [
    1.690000055357685,
    1.00000000712806,
    1
   ],
   "mesh": 10
  },
  {
   "name": "Capsule",
   "rotation": [
    0.01600490468101537,
    0.006959130443286454,
    0.39868832737130283,
    0.9169204082569263
   ],
   "scale": [
    0.0999999986067473,
    1.0100000098095674,
    0.1900000031573506
   ],
   "mesh": 11
  }
 ],
 "scene": 0,
 "scenes": [
  {
   "nodes": [
    0,
    1,
    2,
    3,
    4,
    5,
    6,
    7,
    8,
    9,
    10,
    11
   ]
  }
 ]
}