{
 "accessors": [
  {
   "componentType": 5126,
   "type": "VEC3",
   "count": 1806,
   "max": [
    7,
    -48,
    57
   ],
   "min": [
    -5,
    -60,
    44
   ],
   "bufferView": 0
  },
  {
   "componentType": 5126,
   "type": "VEC3",
   "count": 1806,
   "bufferView": 1
  },
  {
   "componentType": 5123,
   "type": "SCALAR",
   "count": 3672,
   "bufferView": 2
  }
 ],
 "asset": {
  "version": "2.0",
  "generator": "clara.io"
 },
 "bufferViews": [
  {
   "buffer": 0,
   "byteOffset": 0,
   "byteLength": 21672,
   "target": 34962,
   "byteStride": 12
  },
  {
   "buffer": 0,
   "byteOffset": 21672,
   "byteLength": 21672,
   "target": 34962,
   "byteStride": 12
  },
  {
   "buffer": 0,
   "byteOffset": 43344,
   "byteLength": 7344,
   "target": 34963
  }
 ],
 "buffers": [
  {
   "byteLength": 50688,
   "uri": "data:application/octet-stream;base64,"
  }
 ],
 "materials": [
  {
   "name": "group_0_13409773Mat",
   "pbrMetallicRoughness": {
    "baseColorFactor": [
     0.7372549019607844,
     0.5490196078431373,
     0.7058823529411765,
     1
    ],
    "roughnessFactor": 0.3015,
    "metallicFactor": 0
   },
   "emissiveFactor": [
    0.058823529411764705,
    0.050980392156862744,
    0.050980392156862744
   ]
  }
 ],
 "meshes": [
  {
   "primitives": [
    {
     "indices": 2,
     "material": 0,
     "mode": 4,
     "attributes": {
      "POSITION": 0,
      "NORMAL": 1
     }
    }
   ]
  }
 ],
 "nodes": [
  {
   "name": "tinker_root",
   "scale": [
    0.009999999776482582,
    0.009999999776482582,
    0.009999999776482582
   ],
   "children": [
    1
   ]
  },
  {
   "name": "mercurio",
   "translation": [
    0,
    -3.781899929046631,
    -3.1284000873565674
   ],
   "mesh": 0
  }
 ],
 "scene": 0,
 "scenes": [
  {
   "nodes": [
    0
   ]
  }
 ]
}