{
 "accessors": [
  {
   "componentType": 5126,
   "type": "VEC3",
   "count": 1806,
   "max": [
    72,
    -35,
    53
   ],
   "min": [
    60,
    -47,
    41
   ],
   "bufferView": 0
  },
  {
   "componentType": 5126,
   "type": "VEC3",
   "count": 1806,
   "bufferView": 1
  },
  {
   "componentType": 5123,
   "type": "SCALAR",
   "count": 3672,
   "bufferView": 2
  }
 ],
 "asset": {
  "version": "2.0",
  "generator": "clara.io"
 },
 "bufferViews": [
  {
   "buffer": 0,
   "byteOffset": 0,
   "byteLength": 21672,
   "target": 34962,
   "byteStride": 12
  },
  {
   "buffer": 0,
   "byteOffset": 21672,
   "byteLength": 21672,
   "target": 34962,
   "byteStride": 12
  },
  {
   "buffer": 0,
   "byteOffset": 43344,
   "byteLength": 7344,
   "target": 34963
  }
 ],
 "buffers": [
  {
   "byteLength": 50688,
   "uri": "data:application/octet-stream;base64,"
  }
 ],
 "materials": [
  {
   "name": "group_0_1215712Mat",
   "pbrMetallicRoughness": {
    "baseColorFactor": [
     0,
     0.4666666666666667,
     0.7294117647058823,
     1
    ],
    "roughnessFactor": 0.3015,
    "metallicFactor": 0
   }
  }
 ],
 "meshes": [
  {
   "primitives": [
    {
     "indices": 2,
     "material": 0,
     "mode": 4,
     "attributes": {
      "POSITION": 0,
      "NORMAL": 1
     }
    }
   ]
  }
 ],
 "nodes": [
  {
   "name": "tinker_root",
   "scale": [
    0.009999999776482582,
    0.009999999776482582,
    0.009999999776482582
   ],
   "children": [
    1
   ]
  },
  {
   "name": "group_0_1215712",
   "mesh": 0
  }
 ],
 "scene": 0,
 "scenes": [
  {
   "nodes": [
    0
   ]
  }
 ]
}