{
 "accessors": [
  {
   "componentType": 5126,
   "type": "VEC3",
   "count": 1806,
   "max": [
    -32,
    -42,
    60
   ],
   "min": [
    -48,
    -58,
    44
   ],
   "bufferView": 0
  },
  {
   "componentType": 5126,
   "type": "VEC3",
   "count": 1806,
   "bufferView": 1
  },
  {
   "componentType": 5123,
   "type": "SCALAR",
   "count": 3672,
   "bufferView": 2
  }
 ],
 "asset": {
  "version": "2.0",
  "generator": "clara.io"
 },
 "bufferViews": [
  {
   "buffer": 0,
   "byteOffset": 0,
   "byteLength": 21672,
   "target": 34962,
   "byteStride": 12
  },
  {
   "buffer": 0,
   "byteOffset": 21672,
   "byteLength": 21672,
   "target": 34962,
   "byteStride": 12
  },
  {
   "buffer": 0,
   "byteOffset": 43344,
   "byteLength": 7344,
   "target": 34963
  }
 ],
 "buffers": [
  {
   "byteLength": 50688,
   "uri": "data:application/octet-stream;base64,"
  }
 ],
 "materials": [
  {
   "name": "venere",
   "pbrMetallicRoughness": {
    "baseColorFactor": [
     0.6666666666666666,
     0.3215686274509804,
     0,
     1
    ],
    "roughnessFactor": 0.3015,
    "metallicFactor": 0
   },
   "emissiveFactor": [
    0.00784313725490196,
    0.00784313725490196,
    0.00784313725490196
   ]
  }
 ],
 "meshes": [
  {
   "primitives": [
    {
     "indices": 2,
     "material": 0,
     "mode": 4,
     "attributes": {
      "POSITION": 0,
      "NORMAL": 1
     }
    }
   ]
  }
 ],
 "nodes": [
  {
   "name": "tinker (2)_root",
   "scale": [
    0.009999999776482582,
    0.009999999776482582,
    0.009999999776482582
   ],
   "children": [
    1
   ]
  },
  {
   "name": "venere",
   "mesh": 0
  }
 ],
 "scene": 0,
 "scenes": [
  {
   "nodes": [
    0
   ]
  }
 ]
}